<?xml version="1.0" encoding="UTF-8" standalone="no"?>
<!DOCTYPE svg PUBLIC "-//W3C//DTD SVG 1.1//EN" "http://www.w3.org/Graphics/SVG/1.1/DTD/svg11.dtd">
<!-- 由 Microsoft Visio, SVG Export 生成 inconsistent_action.svg 页-1 -->
<svg xmlns="http://www.w3.org/2000/svg" xmlns:xlink="http://www.w3.org/1999/xlink" xmlns:ev="http://www.w3.org/2001/xml-events"
		xmlns:v="http://schemas.microsoft.com/visio/2003/SVGExtensions/" width="5.57362in" height="1.75851in"
		viewBox="0 0 401.3 126.613" xml:space="preserve" color-interpolation-filters="sRGB" class="st16">
	<v:documentProperties v:langID="2052" v:metric="true" v:viewMarkup="false"/>

	<style type="text/css">
	<![CDATA[
		.st1 {fill:#ffffff;stroke:#000000;stroke-linecap:round;stroke-linejoin:round;stroke-width:1}
		.st2 {fill:none;stroke:#000000;stroke-linecap:round;stroke-linejoin:round;stroke-width:1}
		.st3 {marker-end:url(#mrkr2-16);stroke:#000000;stroke-linecap:round;stroke-linejoin:round;stroke-width:0.75}
		.st4 {fill:#000000;fill-opacity:1;stroke:#000000;stroke-opacity:1;stroke-width:0.22935779816514}
		.st5 {marker-end:url(#mrkr2-22);stroke:#0070c0;stroke-linecap:round;stroke-linejoin:round;stroke-width:5}
		.st6 {fill:#0070c0;fill-opacity:1;stroke:#0070c0;stroke-opacity:1;stroke-width:0.66489361702128}
		.st7 {marker-end:url(#mrkr2-16);stroke:#000000;stroke-dasharray:2.25,2.25;stroke-linecap:round;stroke-linejoin:round;stroke-width:0.75}
		.st8 {fill:none;stroke:none;stroke-linecap:round;stroke-linejoin:round;stroke-width:0.75}
		.st9 {fill:#000000;font-family:Arial;font-size:1.00001em}
		.st10 {marker-end:url(#mrkr2-65);stroke:#000000;stroke-linecap:round;stroke-linejoin:round;stroke-width:0.75}
		.st11 {marker-end:url(#mrkr2-71);stroke:#ff0000;stroke-linecap:round;stroke-linejoin:round;stroke-width:2}
		.st12 {fill:#ff0000;fill-opacity:1;stroke:#ff0000;stroke-opacity:1;stroke-width:0.44247787610619}
		.st13 {fill:#ffffff;stroke:#000000;stroke-linecap:round;stroke-linejoin:round;stroke-width:0.24}
		.st14 {font-size:1em}
		.st15 {fill:#ffffff;stroke:#000000;stroke-dasharray:3,3;stroke-linecap:round;stroke-linejoin:round;stroke-width:1}
		.st16 {fill:none;fill-rule:evenodd;font-size:12px;overflow:visible;stroke-linecap:square;stroke-miterlimit:3}
	]]>
	</style>

	<defs id="Markers">
		<g id="lend2">
			<path d="M 1 1 L 0 0 L 1 -1 L 1 1 " style="stroke:none"/>
		</g>
		<marker id="mrkr2-16" class="st4" v:arrowType="2" v:arrowSize="2" v:setback="4.36" refX="-4.36" orient="auto"
				markerUnits="strokeWidth" overflow="visible">
			<use xlink:href="#lend2" transform="scale(-4.36,-4.36) "/>
		</marker>
		<marker id="mrkr2-22" class="st6" v:arrowType="2" v:arrowSize="2" v:setback="1.504" refX="-1.504" orient="auto"
				markerUnits="strokeWidth" overflow="visible">
			<use xlink:href="#lend2" transform="scale(-1.504,-1.504) "/>
		</marker>
		<marker id="mrkr2-65" class="st4" v:arrowType="2" v:arrowSize="2" v:setback="3.88" refX="-3.88" orient="auto"
				markerUnits="strokeWidth" overflow="visible">
			<use xlink:href="#lend2" transform="scale(-4.36,-4.36) "/>
		</marker>
		<marker id="mrkr2-71" class="st12" v:arrowType="2" v:arrowSize="2" v:setback="2.08" refX="-2.08" orient="auto"
				markerUnits="strokeWidth" overflow="visible">
			<use xlink:href="#lend2" transform="scale(-2.26,-2.26) "/>
		</marker>
	</defs>
	<g v:mID="0" v:index="1" v:groupContext="foregroundPage">
		<title>页-1</title>
		<v:pageProperties v:drawingScale="0.0393701" v:pageScale="0.0393701" v:drawingUnits="24" v:shadowOffsetX="8.50394"
				v:shadowOffsetY="-8.50394"/>
		<v:layer v:name="连接线" v:index="0"/>
		<g id="shape1077-1" v:mID="1077" v:groupContext="shape" transform="translate(0.5,-88.7681)">
			<title>圆形.1077</title>
			<v:userDefs>
				<v:ud v:nameU="visVersion" v:val="VT0(15):26"/>
				<v:ud v:nameU="visMasterStencil" v:prompt="" v:val="VT4(Basic_M.vssx)"/>
			</v:userDefs>
			<path d="M0 112.44 A14.1732 14.1732 0 1 1 28.35 112.44 A14.1732 14.1732 0 0 1 0 112.44 Z" class="st1"/>
		</g>
		<g id="shape1078-3" v:mID="1078" v:groupContext="shape" transform="translate(139.87,-88.7681)">
			<title>圆形.1078</title>
			<v:userDefs>
				<v:ud v:nameU="visVersion" v:val="VT0(15):26"/>
				<v:ud v:nameU="visMasterStencil" v:prompt="" v:val="VT4(Basic_M.vssx)"/>
			</v:userDefs>
			<path d="M0 112.44 A14.1732 14.1732 0 1 1 28.35 112.44 A14.1732 14.1732 0 0 1 0 112.44 Z" class="st1"/>
		</g>
		<g id="shape1079-5" v:mID="1079" v:groupContext="shape" transform="translate(139.87,-10.8154)">
			<title>圆形.1079</title>
			<v:userDefs>
				<v:ud v:nameU="visVersion" v:val="VT0(15):26"/>
				<v:ud v:nameU="visMasterStencil" v:prompt="" v:val="VT4(Basic_M.vssx)"/>
			</v:userDefs>
			<path d="M0 112.44 A14.1732 14.1732 0 1 1 28.35 112.44 A14.1732 14.1732 0 0 1 0 112.44 Z" class="st1"/>
		</g>
		<g id="shape1080-7" v:mID="1080" v:groupContext="shape" transform="translate(279.24,-88.7681)">
			<title>圆形.1080</title>
			<v:userDefs>
				<v:ud v:nameU="visVersion" v:val="VT0(15):26"/>
				<v:ud v:nameU="visMasterStencil" v:prompt="" v:val="VT4(Basic_M.vssx)"/>
			</v:userDefs>
			<path d="M0 112.44 A14.1732 14.1732 0 1 1 28.35 112.44 A14.1732 14.1732 0 0 1 0 112.44 Z" class="st2"/>
		</g>
		<g id="shape1081-9" v:mID="1081" v:groupContext="shape" transform="translate(0.5,-10.8154)">
			<title>圆形.1081</title>
			<v:userDefs>
				<v:ud v:nameU="visVersion" v:val="VT0(15):26"/>
				<v:ud v:nameU="visMasterStencil" v:prompt="" v:val="VT4(Basic_M.vssx)"/>
			</v:userDefs>
			<path d="M0 112.44 A14.1732 14.1732 0 1 1 28.35 112.44 A14.1732 14.1732 0 0 1 0 112.44 Z" class="st1"/>
		</g>
		<g id="shape1083-11" v:mID="1083" v:groupContext="shape" v:layerMember="0" transform="translate(28.8465,-95.8548)">
			<title>动态连接线.1083</title>
			<path d="M0 119.53 L107.75 119.53" class="st3"/>
		</g>
		<g id="shape1084-17" v:mID="1084" v:groupContext="shape" v:layerMember="0" transform="translate(168.217,-95.8548)">
			<title>动态连接线.1084</title>
			<path d="M0 119.53 L103.5 119.53" class="st5"/>
		</g>
		<g id="shape1085-23" v:mID="1085" v:groupContext="shape" v:layerMember="0" transform="translate(28.8465,-17.902)">
			<title>动态连接线.1085</title>
			<path d="M0 119.53 L28.66 119.53" class="st7"/>
		</g>
		<g id="shape1086-28" v:mID="1086" v:groupContext="shape" v:layerMember="0" transform="translate(168.217,-17.902)">
			<title>动态连接线.1086</title>
			<path d="M0 119.53 L28.66 119.53" class="st7"/>
		</g>
		<g id="shape1087-33" v:mID="1087" v:groupContext="shape" transform="translate(62.1535,-10.8154)">
			<title>工作表.1087</title>
			<desc>...</desc>
			<v:textBlock v:margins="rect(4,4,4,4)" v:tabSpace="42.5197"/>
			<v:textRect cx="23.3858" cy="112.44" width="46.78" height="28.3465"/>
			<rect x="0" y="98.2664" width="46.7717" height="28.3465" class="st8"/>
			<text x="18.38" y="116.04" class="st9" v:langID="2052"><v:paragraph v:horizAlign="1"/><v:tabList/>...</text>		</g>
		<g id="shape1088-36" v:mID="1088" v:groupContext="shape" transform="translate(199.161,-10.8154)">
			<title>工作表.1088</title>
			<desc>...</desc>
			<v:textBlock v:margins="rect(4,4,4,4)" v:tabSpace="42.5197"/>
			<v:textRect cx="23.3858" cy="112.44" width="46.78" height="28.3465"/>
			<rect x="0" y="98.2664" width="46.7717" height="28.3465" class="st8"/>
			<text x="18.38" y="116.04" class="st9" v:langID="2052"><v:paragraph v:horizAlign="1"/><v:tabList/>...</text>		</g>
		<g id="shape1089-39" v:mID="1089" v:groupContext="shape" transform="translate(333.807,-10.8154)">
			<title>工作表.1089</title>
			<desc>...</desc>
			<v:textBlock v:margins="rect(4,4,4,4)" v:tabSpace="42.5197"/>
			<v:textRect cx="23.3858" cy="112.44" width="46.78" height="28.3465"/>
			<rect x="0" y="98.2664" width="46.7717" height="28.3465" class="st8"/>
			<text x="18.38" y="116.04" class="st9" v:langID="2052"><v:paragraph v:horizAlign="1"/><v:tabList/>...</text>		</g>
		<g id="shape1090-42" v:mID="1090" v:groupContext="shape" transform="translate(333.807,-88.7681)">
			<title>工作表.1090</title>
			<desc>...</desc>
			<v:textBlock v:margins="rect(4,4,4,4)" v:tabSpace="42.5197"/>
			<v:textRect cx="23.3858" cy="112.44" width="46.78" height="28.3465"/>
			<rect x="0" y="98.2664" width="46.7717" height="28.3465" class="st8"/>
			<text x="18.38" y="116.04" class="st9" v:langID="2052"><v:paragraph v:horizAlign="1"/><v:tabList/>...</text>		</g>
		<g id="shape1091-45" v:mID="1091" v:groupContext="shape" v:layerMember="0" transform="translate(307.587,-110.028)">
			<title>动态连接线.1091</title>
			<path d="M0 133.7 L27.91 133.7" class="st3"/>
		</g>
		<g id="shape1092-50" v:mID="1092" v:groupContext="shape" v:layerMember="0" transform="translate(257.142,-32.0752)">
			<title>动态连接线.1092</title>
			<path d="M0 133.7 L78.36 133.7" class="st7"/>
		</g>
		<g id="shape1093-55" v:mID="1093" v:groupContext="shape" v:layerMember="0" transform="translate(107.939,-17.902)">
			<title>动态连接线.1093</title>
			<path d="M0 119.53 L28.66 119.53" class="st7"/>
		</g>
		<g id="shape1095-60" v:mID="1095" v:groupContext="shape" v:layerMember="0" transform="translate(14.6732,-32.0752)">
			<title>动态连接线.1095</title>
			<path d="M0 119.53 C0 107.75 36.73 99.68 71.57 99.68 C103.2 99.68 133.26 106.33 138.55 116.36 L138.64 116.71"
					class="st10"/>
		</g>
		<g id="shape1096-66" v:mID="1096" v:groupContext="shape" v:layerMember="0" transform="translate(154.043,-44.0786)">
			<title>动态连接线.1096</title>
			<path d="M0 131.53 C0 122.51 7.87 122.51 14.84 122.51 C28.54 122.51 38.8 122.51 58.23 122.51 C71.21 122.51 88.28 122.51
						 92.36 131.44 L92.43 131.79" class="st11"/>
		</g>
		<g id="shape1097-72" v:mID="1097" v:groupContext="shape" transform="translate(321.345,27.64) rotate(90)">
			<title>普通双箭头.1097</title>
			<v:userDefs>
				<v:ud v:nameU="visVersion" v:val="VT0(15):26"/>
				<v:ud v:nameU="ArrowType" v:prompt="" v:val="VT0(3):26"/>
			</v:userDefs>
			<path d="M0 126.61 L5.67 120.94 L5.67 123.78 L34.3 123.78 L34.3 120.94 L39.97 126.61 L34.3 132.28 L34.3 129.45 L5.67
						 129.45 L5.67 132.28 L0 126.61 Z" class="st13"/>
		</g>
		<g id="shape1098-74" v:mID="1098" v:groupContext="shape" transform="translate(194.732,-60.8415)">
			<title>工作表.1098</title>
			<desc>Inconsistent action would cause a timeout</desc>
			<v:textBlock v:margins="rect(4,4,4,4)" v:tabSpace="42.5197"/>
			<v:textRect cx="65.6034" cy="116.779" width="131.21" height="19.667"/>
			<rect x="0" y="106.946" width="131.207" height="19.667" class="st8"/>
			<text x="15.91" y="113.18" class="st9" v:langID="2052"><v:paragraph v:horizAlign="1"/><v:tabList/>Inconsistent action <tspan
						x="5.9" dy="1.2em" class="st14">would cause a timeout</tspan></text>		</g>
		<g id="shape1102-78" v:mID="1102" v:groupContext="shape" transform="translate(237.475,-15.1551)">
			<title>圆形.1102</title>
			<v:userDefs>
				<v:ud v:nameU="visVersion" v:val="VT0(15):26"/>
				<v:ud v:nameU="visMasterStencil" v:prompt="" v:val="VT4(Basic_M.vssx)"/>
			</v:userDefs>
			<path d="M0 116.78 A9.8335 9.8335 0 0 1 19.67 116.78 A9.8335 9.8335 0 1 1 0 116.78 Z" class="st15"/>
		</g>
		<g id="shape1103-80" v:mID="1103" v:groupContext="shape" transform="translate(309.148,-112.913)">
			<title>工作表.1103</title>
			<desc>Specification</desc>
			<v:textBlock v:margins="rect(4,4,4,4)" v:tabSpace="42.5197"/>
			<v:textRect cx="38.5847" cy="120.113" width="77.17" height="13.0002"/>
			<rect x="0" y="113.613" width="77.1693" height="13.0002" class="st8"/>
			<text x="4.56" y="123.71" class="st9" v:langID="2052"><v:paragraph v:horizAlign="1"/><v:tabList/>Specification</text>		</g>
		<g id="shape1104-83" v:mID="1104" v:groupContext="shape" transform="translate(300.843,-0.699997)">
			<title>工作表.1104</title>
			<desc>Implementation</desc>
			<v:textBlock v:margins="rect(4,4,4,4)" v:tabSpace="42.5197"/>
			<v:textRect cx="50.0413" cy="120.113" width="100.09" height="13.0002"/>
			<rect x="0" y="113.613" width="100.083" height="13.0002" class="st8"/>
			<text x="9.02" y="123.71" class="st9" v:langID="2052"><v:paragraph v:horizAlign="1"/><v:tabList/>I<tspan class="st14"
						v:langID="1033">mplementation</tspan></text>		</g>
	</g>
</svg>
